<svg version="1" xmlns="http://www.w3.org/2000/svg" width="1365.333" height="1365.333" viewBox="0 0 1024.000000 1024.000000"><path d="M522.6 111.2c-1.3 2-25.9 44.6-33.3 57.8-1.4 2.5-6 10.3-10.1 17.5-4.1 7.1-8.4 14.6-9.5 16.5-1.1 1.9-7 12.3-13.2 23-11.8 20.4-28.5 49.5-61.3 106.5-10.7 18.7-23.8 41.4-29 50.5-8.7 15.2-24.6 42.8-57.4 99.8-7 12.3-12.8 22.7-12.8 23 0 .3-.6 1.3-1.4 2.1-.7.9-2.7 4.1-4.3 7.1-1.7 3-9.2 16.3-16.8 29.5-7.6 13.2-19.2 33.4-25.8 45-6.6 11.5-12.8 22.3-13.7 24-10.1 17.5-25.7 44.9-27.7 48.5-1.4 2.5-5.1 9-8.3 14.5-3.2 5.5-6.8 11.8-8 14-8.9 15.9-19.6 34.5-21.2 36.7-1.1 1.6-1.6 2.8-1.2 2.8.4 0 0 .8-.8 1.7-.8 1-3.2 4.9-5.3 8.8-2.1 3.8-4.8 8.6-6 10.5-1.2 1.9-3.5 6-5.2 9-1.6 3-4 7.3-5.2 9.4-19.9 35-52.1 91.5-54.7 95.9-1.9 3.2-3.4 6.1-3.4 6.4 0 .4-.6 1.4-1.4 2.2-.7.9-2.9 4.6-4.9 8.2-2 3.7-6 10.9-8.9 16-3 5.2-6 10.7-6.8 12.4-.8 1.6-1.6 3.4-1.9 3.9-.8 1.6 3.5-1.8 9.6-7.5 31.3-29.3 91-75.5 132.3-102.3 4.1-2.7 11.1-7.3 15.5-10.1 12.4-8.1 41.2-25.7 52.3-32 .9-.6 6.5-3.8 12.2-7.1 27.7-16.2 90.9-49.3 118.5-62.1 5-2.3 12.8-5.9 17.5-8.1 4.7-2.2 10.8-5 13.5-6.2 2.8-1.2 6.9-3.1 9.3-4.2 13.7-6.1 29.8-12.8 30.9-12.8.7 0 1.3-.5 1.3-1 0-.6.5-1 1-1 .6 0 11.7-4.2 24.8-9.4 40.8-16.2 77.4-28.8 116.3-40.1 19-5.5 50.4-13.9 58.4-15.6 2.2-.5 4.9-1 6-1.3 4.3-1 26.1-5.8 28-6.2 1.1-.2 3.1-.6 4.5-.9 1.4-.2 3.6-.7 5-1 4-.7 7.6-1.4 21.5-3.7 7.2-1.2 13.4-2.5 13.9-3 1.3-1.1-7-1-13.2.2-2.9.5-7.5 1.2-10.4 1.5-2.9.4-5.5.8-5.8 1-.3.1-3.2.6-6.5 1-7.5.9-9.2 1.2-13.5 2-1.9.3-12.3 2.2-23 4-10.7 1.9-20.4 3.6-21.5 3.8-1.1.3-4.2.8-7 1.2-2.7.5-5.2.9-5.5 1-1 .2-8.6 1.7-11 2.2-12.2 2.2-55.3 12.5-66 15.8-2.5.8-13.9 3.9-25.5 7.1-11.5 3.1-23 6.3-25.4 7.1-2.4.8-5.1 1.6-6.1 1.8-7.9 1.5-68.8 21.8-92.5 30.8-25.4 9.7-52.6 21-74.5 31-3 1.4-10.4 4.7-16.5 7.5-6 2.8-16.8 7.8-24 11.2-7.1 3.4-17.5 8.4-23 11-16.7 7.9-38 18.4-38.5 19-.3.3-3.8 2.3-7.9 4.4-6 3.2-7.3 3.5-6.7 2 .4-1 8.9-16.1 18.8-33.4 9.9-17.3 19.2-33.5 20.6-36 1.4-2.5 5-8.8 8-14 3-5.2 6.4-11.1 7.5-13 1-1.9 9.1-15.9 17.8-31.1 8.7-15.2 16.7-29.2 17.7-31 1.1-1.9 7.2-12.6 13.7-23.9 6.5-11.3 13.1-23 14.8-26 1.6-3 3.8-6.7 4.9-8.2 1-1.4 1.8-2.8 1.8-3 0-.3 3.2-6.1 7.1-12.9 3.9-6.8 8.3-14.4 9.7-16.8 1.4-2.5 3.8-6.7 5.3-9.3 1.6-2.7 2.9-5.1 2.9-5.4 0-.3.8-1.8 1.9-3.2 1-1.5 2.9-4.7 4.3-7.2s13-22.7 25.8-45 24.2-42.3 25.4-44.5c3.3-6 81.5-142.6 83.5-145.7l1.7-2.7 9.4 16.5c5.2 9.1 10.7 18.7 12.1 21.2 1.4 2.6 3.5 6.3 4.6 8.2 2.5 4.3 9.5 16.5 12.3 21.6 1.2 2 6.6 11.5 12.1 21.1 5.5 9.6 11.2 19.5 12.6 22.1 1.5 2.6 4.6 8 7 12 2.4 4.1 4.3 7.5 4.3 7.7 0 .2 1.4 2.8 3.1 5.7 1.8 2.9 3.9 6.6 4.9 8.3 2.9 5.2 9 15.9 10 17.5.8 1.3 7.6 13.2 14.2 25 26.2 46.2 40.2 70 41.6 70.4.9.3 5.3.8 9.7 1.1 4.4.3 9.8.7 12 1 2.2.2 6.3.7 9 1 2.8.3 6.1.7 7.5 1 8.6 1.4 36 2.7 36 1.6 0-.4-1.3-2.8-3-5.4-1.6-2.6-3-4.9-3-5.1 0-.2-2.2-4.2-5-9-2.7-4.7-7.2-12.4-9.8-17-2.7-4.6-5.2-9-5.6-9.7-.3-.8-1.7-3.2-2.9-5.4-26.7-46.2-64.9-112.7-67.5-117.5-1.3-2.5-2.7-5-3.2-5.5-.4-.6-1.9-3-3.2-5.5-3.1-5.5-4.9-8.8-12-21-3-5.2-10.1-17.6-15.8-27.5-5.6-9.9-11-19.1-11.8-20.5-.9-1.4-1.7-2.7-1.7-3 0-.3-.8-1.6-1.7-3-.8-1.4-8-13.8-15.8-27.5-7.9-13.8-15.1-26.4-16-28-5-8.7-21.5-37.5-23.4-40.8-1.1-2.1-2.6-4.6-3.1-5.5-5.1-8.5-8.2-13.9-8.8-15.2-.4-.8-2.1-3.8-3.8-6.5-1.6-2.8-3.3-5.8-3.6-6.8-.7-2.3-2-2.2-3.7.5z"/></svg>